<svg xmlns="http://www.w3.org/2000/svg" width="16" height="16" viewBox="0 0 16 16">
    <defs>
        <style>
            .cls-1{fill:none}.cls-2{fill:#fff;fill-rule:evenodd}
        </style>
    </defs>
    <g id="twitter" transform="translate(-1210 -2006)">
        <path id="Rectangle_393" d="M0 0h16v16H0z" class="cls-1" data-name="Rectangle 393" transform="translate(1210 2006)"/>
        <path id="Path_2" d="M43.067 14.978A9.25 9.25 0 0 0 52.4 5.644V5.2A7.225 7.225 0 0 0 54 3.511a7.379 7.379 0 0 1-1.867.533 3.458 3.458 0 0 0 1.422-1.778 8.153 8.153 0 0 1-2.044.8A3.175 3.175 0 0 0 49.111 2a3.34 3.34 0 0 0-3.289 3.289 1.733 1.733 0 0 0 .089.711 9.19 9.19 0 0 1-6.756-3.467 3.4 3.4 0 0 0-.444 1.689 3.532 3.532 0 0 0 1.422 2.756 3 3 0 0 1-1.511-.444 3.249 3.249 0 0 0 2.667 3.2 2.74 2.74 0 0 1-.889.089 1.513 1.513 0 0 1-.622-.089 3.367 3.367 0 0 0 3.111 2.311 6.711 6.711 0 0 1-4.089 1.422 2.461 2.461 0 0 1-.8-.089 8.39 8.39 0 0 0 5.067 1.6" class="cls-2" data-name="Path 2" transform="translate(1172 2005.999)"/>
    </g>
</svg>
