<svg xmlns="http://www.w3.org/2000/svg" width="16" height="16" viewBox="0 0 16 16">
    <defs>
        <style>
            .cls-1{fill:#343638}
        </style>
    </defs>
    <g id="filter" transform="translate(-1462 -104)">
        <path id="filter-2" d="M16 1v2H5.7a1.945 1.945 0 0 1-3.4 0H0V1h2.3a1.945 1.945 0 0 1 3.4 0zm-4 5a1.936 1.936 0 0 0-1.7 1H0v2h10.3a1.945 1.945 0 0 0 3.4 0H16V7h-2.3A1.936 1.936 0 0 0 12 6zm-4 6a1.936 1.936 0 0 0-1.7 1H0v2h6.3a1.945 1.945 0 0 0 3.4 0H16v-2H9.7A1.936 1.936 0 0 0 8 12z" class="cls-1" data-name="filter" transform="translate(1462 104)"/>
    </g>
</svg>
